<svg xmlns="http://www.w3.org/2000/svg" width="40.455" height="32.296" viewBox="0 0 40.455 32.296"><defs><style>.a{fill:#fff;fill-rule:evenodd;opacity:0.75;}</style></defs><path class="a" d="M7.005,10.659H29.948V32.3H7.005a3.542,3.542,0,0,1-3.5-3.5V14a3.4,3.4,0,0,1,3.5-3.337ZM24.213,0a5.192,5.192,0,0,0-5.254,5.254,5.294,5.294,0,0,0,5.254,5.24,5.2,5.2,0,0,0,5.253-5.24A5.1,5.1,0,0,0,24.213,0ZM11.471,0A5.191,5.191,0,0,0,6.218,5.254a5.254,5.254,0,0,0,10.507,0A5.192,5.192,0,0,0,11.471,0ZM.482,15.113H1.9c.33,0,.482.319.482.636V26.256c0,.317-.152.634-.482.634H.482c-.33,0-.482-.317-.482-.634V15.749c0-.317.152-.636.482-.636Zm38.07-3.032-7.487,4.785v9.223L38.552,30.7h1.9V12.081Z" transform="translate(0)"/></svg>