<svg xmlns="http://www.w3.org/2000/svg" width="25.898" height="39.41" viewBox="0 0 25.898 39.41"><defs><style>.a{opacity:0.75;}.b{fill:#fff;}</style></defs><g class="a" transform="translate(0.997 1)"><path class="b" d="M5.277,39.41V35.756h5.809v-4.6A12.55,12.55,0,0,1,0,18.975v-2.74A1.855,1.855,0,0,1,1.877,14.51a1.863,1.863,0,0,1,1.887,1.725v2.74a8.936,8.936,0,0,0,9.186,8.65,8.937,8.937,0,0,0,9.188-8.65v-2.74a1.889,1.889,0,0,1,3.764,0v2.74A12.537,12.537,0,0,1,14.822,31.156v4.6h5.814V39.41Zm0-21.336V17.74H20.637v.334a7.567,7.567,0,0,1-7.68,7.447A7.562,7.562,0,0,1,5.277,18.074Zm.008-2.215V7.449A7.558,7.558,0,0,1,12.957,0,7.819,7.819,0,0,1,18.4,2.18a7.343,7.343,0,0,1,2.246,5.27v8.41Zm10.533-3.512a1.2,1.2,0,1,0,1.2-1.168A1.184,1.184,0,0,0,15.818,12.348Zm-4.02,0A1.2,1.2,0,1,0,13,11.18,1.184,1.184,0,0,0,11.8,12.348Zm-4.023,0A1.2,1.2,0,1,0,8.98,11.18,1.185,1.185,0,0,0,7.775,12.348Zm8.043-3.658a1.2,1.2,0,1,0,1.2-1.166A1.18,1.18,0,0,0,15.818,8.689Zm-4.02,0A1.2,1.2,0,1,0,13,7.523,1.18,1.18,0,0,0,11.8,8.689Zm-4.023,0A1.2,1.2,0,1,0,8.98,7.523,1.18,1.18,0,0,0,7.775,8.689Zm8.043-3.66a1.2,1.2,0,1,0,1.2-1.172A1.182,1.182,0,0,0,15.818,5.029Zm-4.02,0A1.2,1.2,0,1,0,13,3.857,1.183,1.183,0,0,0,11.8,5.029Zm-4.023,0A1.2,1.2,0,1,0,8.98,3.857,1.183,1.183,0,0,0,7.775,5.029Z" transform="translate(-0.999 -1)"/></g></svg>